[Header]
FileType HTR
DataType HTRS
FileVersion 1
NumSegments 64
NumFrames 3
DataFrameRate 24
EulerRotationOrder ZYX
CalibrationUnits mm
RotationUnits Degrees
GlobalAxisofGravity Y
BoneLengthAxis Y
ScaleFactor 1.0
[SegmentNames&Hierarchy]
Hips	GLOBAL
Spine	Hips
Spine1	Spine
Spine2	Spine1
Neck	Spine2
Head	Neck
LeftEye	Head
RightEye	Head
LeftShoulder	Spine2
LeftArm	LeftShoulder
LeftForeArm	LeftArm
LeftHand	LeftForeArm
LeftHandThumb1	LeftHand
LeftHandThumb2	LeftHandThumb1
LeftHandThumb3	LeftHandThumb2
LeftHandThumb4	LeftHandThumb3
LeftHandIndex1	LeftHand
LeftHandIndex2	LeftHandIndex1
LeftHandIndex3	LeftHandIndex2
LeftHandIndex4	LeftHandIndex3
LeftHandMiddle1	LeftHand
LeftHandMiddle2	LeftHandMiddle1
LeftHandMiddle3	LeftHandMiddle2
LeftHandMiddle4	LeftHandMiddle3
LeftHandRing1	LeftHand
LeftHandRing2	LeftHandRing1
LeftHandRing3	LeftHandRing2
LeftHandRing4	LeftHandRing3
LeftHandPinky1	LeftHand
LeftHandPinky2	LeftHandPinky1
LeftHandPinky3	LeftHandPinky2
LeftHandPinky4	LeftHandPinky3
RightShoulder	Spine2
RightArm	RightShoulder
RightForeArm	RightArm
RightHand	RightForeArm
RightHandPinky1	RightHand
RightHandPinky2	RightHandPinky1
RightHandPinky3	RightHandPinky2
RightHandPinky4	RightHandPinky3
RightHandRing1	RightHand
RightHandRing2	RightHandRing1
RightHandRing3	RightHandRing2
RightHandRing4	RightHandRing3
RightHandMiddle1	RightHand
RightHandMiddle2	RightHandMiddle1
RightHandMiddle3	RightHandMiddle2
RightHandMiddle4	RightHandMiddle3
RightHandIndex1	RightHand
RightHandIndex2	RightHandIndex1
RightHandIndex3	RightHandIndex2
RightHandIndex4	RightHandIndex3
RightHandThumb1	RightHand
RightHandThumb2	RightHandThumb1
RightHandThumb3	RightHandThumb2
RightHandThumb4	RightHandThumb3
LeftUpLeg	Hips
LeftLeg	LeftUpLeg
LeftFoot	LeftLeg
LeftToeBase	LeftFoot
RightUpLeg	Hips
RightLeg	RightUpLeg
RightFoot	RightLeg
RightToeBase	RightFoot
[BasePosition]
Hips	0	0	0	0	0	0	1
Spine	0	0	0	0	0	0	1
Spine1	0	0	0	0	0	0	1
Spine2	0	0	0	0	0	0	1
Neck	0	0	0	0	0	0	1
Head	0	0	0	0	0	0	1
LeftEye	0	0	0	0	0	0	1
RightEye	0	0	0	0	0	0	1
LeftShoulder	0	0	0	0	0	0	1
LeftArm	0	0	0	0	0	0	1
LeftForeArm	0	0	0	0	0	0	1
LeftHand	0	0	0	0	0	0	1
LeftHandThumb1	0	0	0	0	0	0	1
LeftHandThumb2	0	0	0	0	0	0	1
LeftHandThumb3	0	0	0	0	0	0	1
LeftHandThumb4	0	0	0	0	0	0	1
LeftHandIndex1	0	0	0	0	0	0	1
LeftHandIndex2	0	0	0	0	0	0	1
LeftHandIndex3	0	0	0	0	0	0	1
LeftHandIndex4	0	0	0	0	0	0	1
LeftHandMiddle1	0	0	0	0	0	0	1
LeftHandMiddle2	0	0	0	0	0	0	1
LeftHandMiddle3	0	0	0	0	0	0	1
LeftHandMiddle4	0	0	0	0	0	0	1
LeftHandRing1	0	0	0	0	0	0	1
LeftHandRing2	0	0	0	0	0	0	1
LeftHandRing3	0	0	0	0	0	0	1
LeftHandRing4	0	0	0	0	0	0	1
LeftHandPinky1	0	0	0	0	0	0	1
LeftHandPinky2	0	0	0	0	0	0	1
LeftHandPinky3	0	0	0	0	0	0	1
LeftHandPinky4	0	0	0	0	0	0	1
RightShoulder	0	0	0	0	0	0	1
RightArm	0	0	0	0	0	0	1
RightForeArm	0	0	0	0	0	0	1
RightHand	0	0	0	0	0	0	1
RightHandPinky1	0	0	0	0	0	0	1
RightHandPinky2	0	0	0	0	0	0	1
RightHandPinky3	0	0	0	0	0	0	1
RightHandPinky4	0	0	0	0	0	0	1
RightHandRing1	0	0	0	0	0	0	1
RightHandRing2	0	0	0	0	0	0	1
RightHandRing3	0	0	0	0	0	0	1
RightHandRing4	0	0	0	0	0	0	1
RightHandMiddle1	0	0	0	0	0	0	1
RightHandMiddle2	0	0	0	0	0	0	1
RightHandMiddle3	0	0	0	0	0	0	1
RightHandMiddle4	0	0	0	0	0	0	1
RightHandIndex1	0	0	0	0	0	0	1
RightHandIndex2	0	0	0	0	0	0	1
RightHandIndex3	0	0	0	0	0	0	1
RightHandIndex4	0	0	0	0	0	0	1
RightHandThumb1	0	0	0	0	0	0	1
RightHandThumb2	0	0	0	0	0	0	1
RightHandThumb3	0	0	0	0	0	0	1
RightHandThumb4	0	0	0	0	0	0	1
LeftUpLeg	0	0	0	0	0	0	1
LeftLeg	0	0	0	0	0	0	1
LeftFoot	0	0	0	0	0	0	1
LeftToeBase	0	0	0	0	0	0	1
RightUpLeg	0	0	0	0	0	0	1
RightLeg	0	0	0	0	0	0	1
RightFoot	0	0	0	0	0	0	1
RightToeBase	0	0	0	0	0	0	1
[Hips]
4	8.931034088	919.1102295	594.8946533	24.51707268	-0.2476950586	3.904343128	1.0
5	14.28936577	918.828125	775.6221924	22.68226242	3.774792194	2.958090782	1.0
6	17.77001572	905.1853027	954.8684692	19.74529266	4.207084656	3.858402252	1.0
[Spine]
4	0	101.8159943	1.315000057	6.731123447	14.53403759	-5.644460678	1.0
5	0	101.8159943	1.315000057	7.503754616	11.36801529	-3.776884079	1.0
6	0	101.8159943	1.315000057	9.438652039	10.1256094	-5.202701569	1.0
[Spine1]
4	0	100.8349991	-10.00800037	0.4546401501	3.916793346	-1.153084755	1.0
5	0	100.8349991	-10.00800037	0.8077765107	3.01665473	-0.8448627591	1.0
6	0	100.8349991	-10.00800037	1.640101194	2.578580856	-0.9880641103	1.0
[Spine2]
4	0	91	-13.73399925	0.4269084632	3.927356005	-1.167896271	1.0
5	0	91	-13.73399925	0.7938401699	3.018655062	-0.8701680303	1.0
6	0	91	-13.73399925	1.623663902	2.568936825	-1.035883188	1.0
[Neck]
4	0	166.7169952	-25.16200066	-7.033202648	-3.532237291	0.4694710672	1.0
5	0	166.7169952	-25.16200066	-6.438090801	-3.406398535	0.684238553	1.0
6	0	166.7169952	-25.16200066	-5.999791622	-3.243411303	0.8702861071	1.0
[Head]
4	0	96.17900085	16.84999847	-19.92007256	-18.70609856	5.621610641	1.0
5	0	96.17900085	16.84999847	-20.4243412	-17.79760742	7.598648548	1.0
6	0	96.17900085	16.84999847	-23.24252892	-16.28323555	9.980019569	1.0
[LeftEye]
4	30.6760006	64.09500122	92.83599854	0	0	0	1.0
5	30.6760006	64.09500122	92.83599854	0	0	0	1.0
6	30.6760006	64.09500122	92.83599854	0	0	0	1.0
[RightEye]
4	-30.6760006	64.09500122	92.83499908	0	0	0	1.0
5	-30.6760006	64.09500122	92.83499908	0	0	0	1.0
6	-30.6760006	64.09500122	92.83499908	0	0	0	1.0
[LeftShoulder]
4	45.70400238	109.4599991	-26.28000069	0.812176764	-1.26575911	-9.752639771	1.0
5	45.70400238	109.4599991	-26.28000069	0.8255516887	-0.7486791611	-12.55728054	1.0
6	45.70400238	109.4599991	-26.28000069	1.161863804	-1.68794322	-16.00804138	1.0
[LeftArm]
4	105.923996	-5.24600029	-22.32099915	31.90496063	58.03800964	-23.46749306	1.0
5	105.923996	-5.24600029	-22.32099915	24.89232063	50.73048401	-32.34560013	1.0
6	105.923996	-5.24600029	-22.32099915	17.58341217	33.86216354	-40.24266434	1.0
[LeftForeArm]
4	278.414978	-0.0009999999311	0	-3.29331524e-05	-82.60522461	-0.0001666922617	1.0
5	278.414978	-0.0009999999311	0	0.0001006019738	-83.01009369	-0.0002586154151	1.0
6	278.414978	-0.0009999999311	0	-8.478968812e-05	-82.06929016	-0.0001186484078	1.0
[LeftHand]
4	283.2879944	0	0	10.02244568	-15.35036659	15.65414333	1.0
5	283.2879944	0	0	10.24431801	-16.00022507	17.4168644	1.0
6	283.2879944	0	0	11.47677231	-16.9594593	17.71530151	1.0
[LeftHandThumb1]
4	24.6609993	-15.75	26.8239994	-7.687894821	-2.87317729	19.62811661	1.0
5	24.6609993	-15.75	26.8239994	-7.687894821	-2.87317729	19.62811661	1.0
6	24.6609993	-15.75	26.8239994	-7.687894821	-2.87317729	19.62811661	1.0
[LeftHandThumb2]
4	32.29800034	-18.64699936	18.64699936	10.23237705	29.10156631	-9.070272446	1.0
5	32.29800034	-18.64699936	18.64699936	10.40198708	30.47743416	-9.328967094	1.0
6	32.29800034	-18.64699936	18.64699936	10.45804405	30.8596344	-9.400589943	1.0
[LeftHandThumb3]
4	26.52600098	-15.31499958	15.31499958	-16.19060326	-24.50516701	23.12229919	1.0
5	26.52600098	-15.31499958	15.31499958	-17.29906464	-26.08662224	25.75311661	1.0
6	26.52600098	-15.31499958	15.31499958	-18.79691505	-28.1361866	29.50590515	1.0
[LeftHandThumb4]
4	19.54599953	-11.28499985	11.28499985	0	0	0	1.0
5	19.54599953	-11.28499985	11.28499985	0	0	0	1.0
6	19.54599953	-11.28499985	11.28499985	0	0	0	1.0
[LeftHandIndex1]
4	91.09299469	-5.170999527	22.60099792	4.396562099	-10.32137966	-18.0115509	1.0
5	91.09299469	-5.170999527	22.60099792	5.852367401	-10.98779774	-9.63199234	1.0
6	91.09299469	-5.170999527	22.60099792	6.257709503	-10.87992954	-3.787713289	1.0
[LeftHandIndex2]
4	36.76399994	0	0	-4.996170044	5.766114712	-81.80407715	1.0
5	36.76399994	0	0	-5.11670208	5.78210783	-83.00198364	1.0
6	36.76399994	0	0	-5.247301102	5.796565533	-84.29665375	1.0
[LeftHandIndex3]
4	28.83100128	0	0	-0.8178192377	2.980233431	-30.68414688	1.0
5	28.83100128	0	0	-0.8394399881	3.016316652	-31.09750938	1.0
6	28.83100128	0	0	-0.8664801717	3.060628653	-31.60757256	1.0
[LeftHandIndex4]
4	23.92700005	0	0	0	0	0	1.0
5	23.92700005	0	0	0	0	0	1.0
6	23.92700005	0	0	0	0	0	1.0
[LeftHandMiddle1]
4	95.33399963	0	0	-3.563696861	-7.177454948	-47.88157654	1.0
5	95.33399963	0	0	-3.2276721	-8.567803383	-44.81139374	1.0
6	95.33399963	0	0	-2.999488831	-8.331163406	-42.58075333	1.0
[LeftHandMiddle2]
4	36.98199844	0	0	-3.562690496	5.369277954	-67.1095047	1.0
5	36.98199844	0	0	-3.810282707	5.466762066	-69.73126221	1.0
6	36.98199844	0	0	-3.920222521	5.505930424	-70.88124847	1.0
[LeftHandMiddle3]
4	29.50900078	0	0	-1.082908511	3.386717796	-35.45475769	1.0
5	29.50900078	0	0	-1.203871012	3.550165892	-37.45409775	1.0
6	29.50900078	0	0	-1.294239044	3.664894342	-38.89022064	1.0
[LeftHandMiddle4]
4	28.3390007	0	0	0	0	0	1.0
5	28.3390007	0	0	0	0	0	1.0
6	28.3390007	0	0	0	0	0	1.0
[LeftHandRing1]
4	91.04499817	-0.4390000105	-18.65100098	-4.051711082	-1.724083185	-52.12096024	1.0
5	91.04499817	-0.4390000105	-18.65100098	-4.047863483	-1.38996613	-52.06703186	1.0
6	91.04499817	-0.4390000105	-18.65100098	-4.018629551	-0.9595829248	-51.77841949	1.0
[LeftHandRing2]
4	31.54000092	0	0	-4.693537712	5.714606285	-78.77899933	1.0
5	31.54000092	0	0	-5.092837334	5.779148579	-82.76499176	1.0
6	31.54000092	0	0	-5.379368782	5.808186531	-85.60292053	1.0
[LeftHandRing3]
4	29.37700081	0	0	-0.8285327554	2.998194695	-30.88965416	1.0
5	29.37700081	0	0	-0.9593896866	3.206496	-33.30708313	1.0
6	29.37700081	0	0	-1.048710704	3.338258266	-34.87181473	1.0
[LeftHandRing4]
4	26.47500038	0	0	0	0	0	1.0
5	26.47500038	0	0	0	0	0	1.0
6	26.47500038	0	0	0	0	0	1.0
[LeftHandPinky1]
4	80.77799988	-4.887000084	-38.06099701	-4.764934063	0.7572222352	-58.07470322	1.0
5	80.77799988	-4.887000084	-38.06099701	-4.411486149	0.7356122136	-54.02182388	1.0
6	80.77799988	-4.887000084	-38.06099701	-3.804877281	0.27126652	-49.12149811	1.0
[LeftHandPinky2]
4	36	0	0	-2.712837219	4.926471233	-57.65929031	1.0
5	36	0	0	-2.774726868	4.964970589	-58.37724686	1.0
6	36	0	0	-2.823921442	4.994817257	-58.94387436	1.0
[LeftHandPinky3]
4	21.14200211	0	0	-1.074028373	3.374239206	-35.30424881	1.0
5	21.14200211	0	0	-1.2131598	3.562227488	-37.60377121	1.0
6	21.14200211	0	0	-1.336489916	3.71655798	-39.54652023	1.0
[LeftHandPinky4]
4	19.75699997	0	0	0	0	0	1.0
5	19.75699997	0	0	0	0	0	1.0
6	19.75699997	0	0	0	0	0	1.0
[RightShoulder]
4	-45.70000076	109.4620056	-26.28000069	1.47604692	2.772695541	16.70337868	1.0
5	-45.70000076	109.4620056	-26.28000069	1.943708897	4.687840939	16.92820168	1.0
6	-45.70000076	109.4620056	-26.28000069	1.999078631	4.77117157	17.42807198	1.0
[RightArm]
4	-105.9280014	-5.248000145	-22.32099915	-25.16498566	16.50564575	20.34848976	1.0
5	-105.9280014	-5.248000145	-22.32099915	-10.83402252	9.927228928	25.23420525	1.0
6	-105.9280014	-5.248000145	-22.32099915	6.429856777	1.690743923	32.81031036	1.0
[RightForeArm]
4	-278.414978	0	0	1.525878906e-05	125.8162079	1.525878906e-05	1.0
5	-278.414978	0	0	1.339040389e-18	120.4379272	2.684000158e-12	1.0
6	-278.414978	0	0	1.525878361e-05	107.7634125	-1.525879452e-05	1.0
[RightHand]
4	-283.2879944	0	0.0009999999311	29.56781769	12.00406361	-7.76252985	1.0
5	-283.2879944	0	0.0009999999311	33.69137192	6.925235748	-9.232494354	1.0
6	-283.2879944	0	0.0009999999311	38.38892746	8.426908493	-9.67963028	1.0
[RightHandPinky1]
4	-80.76699829	-4.885000229	-38.06000137	-6.268783092	1.053815484	81.01967621	1.0
5	-80.76699829	-4.885000229	-38.06000137	-6.093896866	1.478911757	80.29878998	1.0
6	-80.76699829	-4.885000229	-38.06000137	-6.286703587	1.053743601	80.76213837	1.0
[RightHandPinky2]
4	-36	0	0.0009999999311	-3.782570601	-4.552392006	79.45671082	1.0
5	-36	0	0.0009999999311	-3.740705967	-4.544404507	78.92877197	1.0
6	-36	0	0.0009999999311	-3.573117971	-4.508432865	76.8057251	1.0
[RightHandPinky3]
4	-21.14200211	0	0	-3.08074522	-4.364003658	70.4269104	1.0
5	-21.14200211	0	0	-3.166646004	-4.393517494	71.55183411	1.0
6	-21.14200211	0	0	-3.167704344	-4.393864632	71.5657959	1.0
[RightHandPinky4]
4	-19.75699997	0	0	0	0	0	1.0
5	-19.75699997	0	0	0	0	0	1.0
6	-19.75699997	0	0	0	0	0	1.0
[RightHandRing1]
4	-91.03599548	-0.4390000105	-18.65100098	-5.648001194	2.544422865	75.24113464	1.0
5	-91.03599548	-0.4390000105	-18.65100098	-5.59577179	3.05067873	74.64603424	1.0
6	-91.03599548	-0.4390000105	-18.65100098	-5.523586273	2.797419548	73.85249329	1.0
[RightHandRing2]
4	-31.54000092	0	0	-3.288361073	-4.432147503	73.13365936	1.0
5	-31.54000092	0	0	-3.246128321	-4.419167042	72.58641052	1.0
6	-31.54000092	0	0	-3.062806368	-4.357592106	70.19097137	1.0
[RightHandRing3]
4	-29.37700081	0	0	-1.283084869	-3.201258898	43.67382431	1.0
5	-29.37700081	0	0	-1.398133039	-3.31738925	45.69711685	1.0
6	-29.37700081	0	0	-1.497655749	-3.411524534	47.39284134	1.0
[RightHandRing4]
4	-26.47500038	0	0	0	0	0	1.0
5	-26.47500038	0	0	0	0	0	1.0
6	-26.47500038	0	0	0	0	0	1.0
[RightHandMiddle1]
4	-95.32500458	0	0	-4.458459854	1.847516894	62.16989136	1.0
5	-95.32500458	0	0	-4.423670769	2.353627682	61.79402924	1.0
6	-95.32500458	0	0	-4.231624126	3.573508739	59.71547318	1.0
[RightHandMiddle2]
4	-36.98199844	0	0	-2.957324982	-4.318270206	68.79642487	1.0
5	-36.98199844	0	0	-2.949070454	-4.315060616	68.68682861	1.0
6	-36.98199844	0	0	-2.948702574	-4.314931393	68.68208313	1.0
[RightHandMiddle3]
4	-29.50900078	0	0	-2.058609486	-3.853904963	56.23124313	1.0
5	-29.50900078	0	0	-2.176014423	-3.929687738	57.96162796	1.0
6	-29.50900078	0	0	-2.295841932	-4.002005577	59.69499207	1.0
[RightHandMiddle4]
4	-28.3390007	0	0.0009999999311	0	0	0	1.0
5	-28.3390007	0	0.0009999999311	0	0	0	1.0
6	-28.3390007	0	0.0009999999311	0	0	0	1.0
[RightHandIndex1]
4	-91.08300018	-5.167999744	22.60099792	-2.085277557	2.514519453	59.45370483	1.0
5	-91.08300018	-5.167999744	22.60099792	-1.469109893	1.932981253	57.03285217	1.0
6	-91.08300018	-5.167999744	22.60099792	-1.087012768	1.168294907	52.49737167	1.0
[RightHandIndex2]
4	-36.76399994	0	0	-2.143996716	-3.907501459	57.49306488	1.0
5	-36.76399994	0	0	-2.122829437	-3.893960714	57.18193054	1.0
6	-36.76399994	0	0	-2.032806158	-3.834529877	55.84632111	1.0
[RightHandIndex3]
4	-28.83100128	0	0	-0.9147441983	-2.765057802	36.60528183	1.0
5	-28.83100128	0	0	-0.8906037807	-2.732274532	36.10174942	1.0
6	-28.83100128	0	0	-0.8666197062	-2.699103594	35.59538269	1.0
[RightHandIndex4]
4	-23.92700005	0	0	0	0	0	1.0
5	-23.92700005	0	0	0	0	0	1.0
6	-23.92700005	0	0	0	0	0	1.0
[RightHandThumb1]
4	-24.64799881	-15.72700024	26.82600021	-10.80079556	1.639939547	-1.271696329	1.0
5	-24.64799881	-15.72700024	26.82600021	-10.80079556	1.639939547	-1.271696329	1.0
6	-24.64799881	-15.72700024	26.82600021	-10.80079556	1.639939547	-1.271696329	1.0
[RightHandThumb2]
4	-32.29800034	-18.64699936	18.64699936	21.21514511	-29.12460327	-4.299776554	1.0
5	-32.29800034	-18.64699936	18.64699936	19.91197586	-24.76501083	-4.437067509	1.0
6	-32.29800034	-18.64699936	18.64699936	21.46293449	-29.84101295	-4.28663063	1.0
[RightHandThumb3]
4	-26.52600098	-15.31399918	15.31399918	-17.384552	21.44795609	-12.68432236	1.0
5	-26.52600098	-15.31399918	15.31399918	-17.31636047	20.52050781	-12.25217915	1.0
6	-26.52600098	-15.31399918	15.31399918	-17.59396744	24.00383759	-16.03811264	1.0
[RightHandThumb4]
4	-19.54599953	-11.28499985	11.28499985	0	0	0	1.0
5	-19.54599953	-11.28499985	11.28499985	0	0	0	1.0
6	-19.54599953	-11.28499985	11.28499985	0	0	0	1.0
[LeftUpLeg]
4	82.07800293	-67.51699829	-15.99599934	-84.09507751	-0.7366338968	-2.006002665	1.0
5	82.07800293	-67.51699829	-15.99599934	-75.22291565	-2.098314285	-0.7167521715	1.0
6	82.07800293	-67.51699829	-15.99599934	-65.93076324	0.1942625046	-1.658853173	1.0
[LeftLeg]
4	0	-443.7049866	2.845999956	62.94263458	0.6520431042	1.544550538	1.0
5	0	-443.7049866	2.845999956	46.87588501	2.905032635	1.963320971	1.0
6	0	-443.7049866	2.845999956	45.80856705	8.592300415	5.404679775	1.0
[LeftFoot]
4	0	-444.2789917	-29.8219986	-3.315500736	0.3117325008	-5.886652946	1.0
5	0	-444.2789917	-29.8219986	-2.091408491	0.4733820856	-11.8805151	1.0
6	0	-444.2789917	-29.8219986	-3.04933238	0.3799085617	-8.879712105	1.0
[LeftToeBase]
4	0	-87.28699493	107.1060028	0.3109546006	-2.583370588e-06	2.940662114e-07	1.0
5	0	-87.28699493	107.1060028	-0.5168386102	-1.225599362e-06	6.807700174e-06	1.0
6	0	-87.28699493	107.1060028	-1.174778819	3.90071051e-07	-2.206107865e-06	1.0
[RightUpLeg]
4	-82.07800293	-67.51699829	-15.99599934	13.67685509	-7.924959183	-5.785522938	1.0
5	-82.07800293	-67.51699829	-15.99599934	9.944540977	-4.869699001	-0.4400888979	1.0
6	-82.07800293	-67.51699829	-15.99599934	2.885966301	-4.360140324	-0.970441103	1.0
[RightLeg]
4	0	-443.7049866	2.861999989	17.40067101	4.284220695	-3.941928148	1.0
5	0	-443.7049866	2.861999989	45.1753273	7.19951725	3.566036463	1.0
6	0	-443.7049866	2.861999989	76.54125977	1.885434866	4.959372997	1.0
[RightFoot]
4	0	-444.2770081	-29.83799934	11.52038097	-2.320045471	16.49484253	1.0
5	0	-444.2770081	-29.83799934	7.678766727	-1.80444932	17.61557579	1.0
6	0	-444.2770081	-29.83799934	11.01794434	-1.233247638	9.537880898	1.0
[RightToeBase]
4	0	-87.28699493	107.1060028	-2.995949984	-1.104575972e-06	-3.193914608e-06	1.0
5	0	-87.28699493	107.1060028	-7.083748341	3.275629069e-06	-2.375318672e-06	1.0
6	0	-87.28699493	107.1060028	-17.20311928	1.839215884e-06	3.953084615e-06	1.0
[EndOfFile]
